<svg width="49" height="48" viewBox="0 0 49 48" fill="none" xmlns="http://www.w3.org/2000/svg">
<path d="M43.0005 36.94L39.7005 37.72C38.9605 37.9 38.3805 38.46 38.2205 39.2L37.5205 42.14C37.1405 43.74 35.1005 44.24 34.0405 42.98L28.0605 36.1C27.5805 35.54 27.8405 34.66 28.5605 34.48C32.1005 33.62 35.2805 31.64 37.6205 28.82C38.0005 28.36 38.6805 28.3 39.1005 28.72L43.5405 33.16C45.0605 34.68 44.5205 36.58 43.0005 36.94Z" fill="#FEC84B"/>
<path d="M5.90033 36.94L9.20033 37.72C9.94033 37.9 10.5203 38.46 10.6803 39.2L11.3803 42.14C11.7603 43.74 13.8003 44.24 14.8603 42.98L20.8403 36.1C21.3203 35.54 21.0603 34.66 20.3403 34.48C16.8003 33.62 13.6203 31.64 11.2803 28.82C10.9003 28.36 10.2203 28.3 9.80033 28.72L5.36033 33.16C3.84033 34.68 4.38033 36.58 5.90033 36.94Z" fill="#FEC84B"/>
<path d="M24.5 4C16.76 4 10.5 10.26 10.5 18C10.5 20.9 11.36 23.56 12.84 25.78C15 28.98 18.42 31.24 22.4 31.82C23.08 31.94 23.78 32 24.5 32C25.22 32 25.92 31.94 26.6 31.82C30.58 31.24 34 28.98 36.16 25.78C37.64 23.56 38.5 20.9 38.5 18C38.5 10.26 32.24 4 24.5 4ZM30.62 17.56L28.96 19.22C28.68 19.5 28.52 20.04 28.62 20.44L29.1 22.5C29.48 24.12 28.62 24.76 27.18 23.9L25.18 22.72C24.82 22.5 24.22 22.5 23.86 22.72L21.86 23.9C20.42 24.74 19.56 24.12 19.94 22.5L20.42 20.44C20.5 20.06 20.36 19.5 20.08 19.22L18.38 17.56C17.4 16.58 17.72 15.6 19.08 15.38L21.22 15.02C21.58 14.96 22 14.64 22.16 14.32L23.34 11.96C23.98 10.68 25.02 10.68 25.66 11.96L26.84 14.32C27 14.64 27.42 14.96 27.8 15.02L29.94 15.38C31.28 15.6 31.6 16.58 30.62 17.56Z" fill="#FEC84B"/>
</svg>
